<svg width="28" height="28" viewBox="0 0 28 28" fill="none" xmlns="http://www.w3.org/2000/svg">
<g clip-path="url(#clip0_10_4)" filter="url(#filter0_d_10_4)">
<path d="M20.5714 10.5714H15.7143C15.5565 10.5714 15.4286 10.4435 15.4286 10.2857V5.42857C15.4286 4.63965 14.7889 4 14 4C13.2111 4 12.5714 4.63965 12.5714 5.42857V10.2857C12.5714 10.4435 12.4435 10.5714 12.2857 10.5714H7.42857C6.63965 10.5714 6 11.2111 6 12C6 12.7889 6.63965 13.4286 7.42857 13.4286H12.2857C12.4435 13.4286 12.5714 13.5565 12.5714 13.7143V18.5714C12.5714 19.3604 13.2111 20 14 20C14.7889 20 15.4286 19.3604 15.4286 18.5714V13.7143C15.4286 13.5565 15.5565 13.4286 15.7143 13.4286H20.5714C21.3604 13.4286 22 12.7889 22 12C22 11.2111 21.3604 10.5714 20.5714 10.5714Z" fill="white"/>
</g>
<defs>
<filter id="filter0_d_10_4" x="0" y="0" width="28" height="28" filterUnits="userSpaceOnUse" color-interpolation-filters="sRGB">
<feFlood flood-opacity="0" result="BackgroundImageFix"/>
<feColorMatrix in="SourceAlpha" type="matrix" values="0 0 0 0 0 0 0 0 0 0 0 0 0 0 0 0 0 0 127 0" result="hardAlpha"/>
<feOffset dy="2"/>
<feGaussianBlur stdDeviation="3"/>
<feColorMatrix type="matrix" values="0 0 0 0 1 0 0 0 0 1 0 0 0 0 1 0 0 0 0.4 0"/>
<feBlend mode="normal" in2="BackgroundImageFix" result="effect1_dropShadow_10_4"/>
<feBlend mode="normal" in="SourceGraphic" in2="effect1_dropShadow_10_4" result="shape"/>
</filter>
<clipPath id="clip0_10_4">
<rect width="16" height="16" fill="white" transform="translate(6 4)"/>
</clipPath>
</defs>
</svg>
